<?xml version="1.0" encoding="UTF-8"?>
<svg width="25px" height="22px" viewBox="0 0 25 22" version="1.1" xmlns="http://www.w3.org/2000/svg" xmlns:xlink="http://www.w3.org/1999/xlink">
    <!-- Generator: sketchtool 55.2 (78181) - https://sketchapp.com -->
    <title>4899B533-5A0C-40EC-A098-8B45A69C0B9F@2x</title>
    <desc>Created with sketchtool.</desc>
    <g id="Page-1" stroke="none" stroke-width="1" fill="none" fill-rule="evenodd">
        <g id="Mobile---Claim-Info" transform="translate(-102.000000, -485.000000)">
            <g id="Group-2" transform="translate(74.000000, 471.000000)">
                <g id="Group" transform="translate(26.000000, 11.000000)">
                    <g id="Support">
                        <rect id="Rectangle" x="0" y="0" width="29" height="29"></rect>
                        <path d="M25.0366667,11.34625 C24.2132465,11.6049136 23.6530446,12.3681581 23.653125,13.23125 L23.653125,17.0616667 C23.6530446,17.9247586 24.2132465,18.688003 25.0366667,18.9466667 C25.8589048,18.6863527 26.4183599,17.9241256 26.4202083,17.0616667 L26.4202083,13.23125 C26.4183599,12.368791 25.8589048,11.606564 25.0366667,11.34625 L25.0366667,11.34625 Z" id="Path" fill="#A287F4" fill-rule="nonzero"></path>
                        <path d="M5.93895833,11.34625 C5.11553815,11.6049136 4.5553363,12.3681581 4.55541667,13.23125 L4.55541667,17.0616667 C4.5553363,17.9247586 5.11553815,18.688003 5.93895833,18.9466667 C6.76237852,18.688003 7.32258037,17.9247586 7.3225,17.0616667 L7.3225,13.23125 C7.32258037,12.3681581 6.76237852,11.6049136 5.93895833,11.34625 L5.93895833,11.34625 Z" id="Path" fill="#A287F4" fill-rule="nonzero"></path>
                        <path d="M23.1516667,18.8620833 C21.4221778,21.9051698 18.1935449,23.7870015 14.6933333,23.7920833" id="Path" stroke="#373737" stroke-linecap="round" stroke-linejoin="round"></path>
                        <path d="M5.33479167,11.2435417 C6.56910631,7.13823855 10.3383785,4.31942151 14.6251593,4.29582201 C18.91194,4.2722225 22.712019,7.04936889 23.9914583,11.1408333" id="Path" stroke="#373737" stroke-linecap="round" stroke-linejoin="round"></path>
                        <rect id="Rectangle" stroke="#373737" stroke-linecap="round" stroke-linejoin="round" x="22.4447917" y="11.2435417" width="3.97541667" height="7.811875" rx="1.974"></rect>
                        <rect id="Rectangle" stroke="#373737" stroke-linecap="round" stroke-linejoin="round" x="3.34708333" y="11.2435417" width="3.97541667" height="7.811875" rx="1.974"></rect>
                        <rect id="Rectangle" fill="#373737" fill-rule="nonzero" x="12.5875" y="22.6439583" width="3" height="2" rx="0.858"></rect>
                    </g>
                </g>
            </g>
        </g>
    </g>
</svg>