<?xml version="1.0" encoding="UTF-8"?>
<svg width="12px" height="13px" viewBox="0 0 12 13" version="1.1" xmlns="http://www.w3.org/2000/svg" xmlns:xlink="http://www.w3.org/1999/xlink">
    <!-- Generator: sketchtool 55.2 (78181) - https://sketchapp.com -->
    <title>7C66A811-B183-4DD3-BB8E-7B03CEC1015F@2x</title>
    <desc>Created with sketchtool.</desc>
    <g id="Page-1" stroke="none" stroke-width="1" fill="none" fill-rule="evenodd">
        <g id="Choose-Plan---Main" transform="translate(-252.000000, -64.000000)">
            <g id="Group-7" transform="translate(83.000000, 64.000000)">
                <g id="Group-5" transform="translate(28.000000, 0.000000)">
                    <g id="Group-33-Copy" transform="translate(141.000000, 1.000000)">
                        <path d="M7.85751474,0.406723213 L1.6780167,6.84100893 L4.42202116,9.69815178 L10.5905432,3.2524375 C10.8405583,2.99390516 10.9811608,2.6421833 10.9811608,2.27529464 C10.9811608,1.90840598 10.8405583,1.55668412 10.5905432,1.29815178 L9.7344138,0.406723213 C9.48611894,0.146399726 9.14832471,-1.8562929e-13 8.79596427,-1.8562929e-13 C8.44360383,-1.8562929e-13 8.1058096,0.146399726 7.85751474,0.406723213 L7.85751474,0.406723213 Z" id="Path" stroke="#373737" stroke-linecap="round" stroke-linejoin="round"></path>
                        <path d="M0.262110394,9.7724375 L0.00417397482,11.1552946 C-0.0100323887,11.2300948 0.0125185269,11.3073455 0.0642995304,11.3612615 C0.116080534,11.4151775 0.190272216,11.4386582 0.262110394,11.4238661 L1.59020855,11.1610089 C1.67033035,11.1444368 1.73498817,11.0829124 1.75803758,11.0013132 C1.78108699,10.919714 1.75871538,10.8315373 1.69996873,10.7724375 L0.629806992,9.62958036 C0.568970724,9.57070538 0.481431976,9.55262177 0.403616972,9.58285438 C0.325801969,9.61308699 0.271036915,9.68645835 0.262110394,9.7724375 Z" id="Path" fill="#373737" fill-rule="nonzero"></path>
                    </g>
                </g>
            </g>
        </g>
    </g>
</svg>