<?xml version="1.0" encoding="UTF-8"?>
<svg width="32px" height="32px" viewBox="0 0 32 32" version="1.1" xmlns="http://www.w3.org/2000/svg" xmlns:xlink="http://www.w3.org/1999/xlink">
    <!-- Generator: sketchtool 55.2 (78181) - https://sketchapp.com -->
    <title>59B195E3-C29F-4B6A-85D4-E5544B8CBFE0</title>
    <desc>Created with sketchtool.</desc>
    <g id="Page-1" stroke="none" stroke-width="1" fill="none" fill-rule="evenodd">
        <g id="Choose-Car-Type" transform="translate(-198.000000, -193.000000)">
            <g id="QuickLinks-/-Edit" transform="translate(188.000000, 183.000000)">
                <g id="Icon">
                    <g transform="translate(10.000000, 10.000000)">
                        <g id="Icon-/-Claim">
                            <circle id="Oval" fill="#F3F7FF" fill-rule="nonzero" cx="15.9378199" cy="15.9378199" r="15.9378199"></circle>
                            <g id="Group-18" transform="translate(9.000000, 8.000000)">
                                <path d="M11.5910429,1.31948576 L2.46911804,10.4414107 L5.60682129,13.5809805 L14.7287462,4.45905558 C15.4917425,3.69408047 15.4917425,2.45590819 14.7287462,1.69093308 L14.3554323,1.31761919 C13.5912222,0.555567345 12.3542233,0.556402591 11.5910429,1.31948576 L11.5910429,1.31948576 Z" id="Path" fill="#FDADD9" fill-rule="nonzero"></path>
                                <path d="M10.719355,0.572857984 L1.59743011,9.69291631 L5.63295326,13.730306 L14.7530116,4.60838113 C15.1203801,4.24146068 15.3268034,3.74354072 15.3268034,3.22431989 C15.3268034,2.70509905 15.1203801,2.20717909 14.7530116,1.84025864 L13.4856109,0.572857984 C12.7217015,-0.190952661 11.4832644,-0.190952661 10.719355,0.572857984 Z" id="Path" stroke="#373737" stroke-width="1.23076923" stroke-linecap="round" stroke-linejoin="round"></path>
                                <path d="M0.464422452,12.4461063 L0.00711293731,14.8166495 C-0.0175547936,14.9444221 0.0227970037,15.076107 0.114814225,15.1681243 C0.206831447,15.2601415 0.338516407,15.3004933 0.466289022,15.2758255 L2.83496565,14.818516 L0.464422452,12.4461063 Z" id="Path" stroke="#373737" stroke-width="1.23076923" stroke-linecap="round" stroke-linejoin="round"></path>
                            </g>
                        </g>
                    </g>
                </g>
            </g>
        </g>
    </g>
</svg>