<?xml version="1.0" encoding="UTF-8"?>
<svg width="72px" height="24px" viewBox="0 0 72 24" version="1.1" xmlns="http://www.w3.org/2000/svg" xmlns:xlink="http://www.w3.org/1999/xlink">
    <!-- Generator: sketchtool 55.2 (78181) - https://sketchapp.com -->
    <title>CCCAA7C8-AB86-44CE-AA44-250B3DFF2DFE</title>
    <desc>Created with sketchtool.</desc>
    <defs>
        <polygon id="path-1" points="6.92307692e-05 0.344483048 71.6548846 0.344483048 71.6548846 23.0182443 6.92307692e-05 23.0182443"></polygon>
    </defs>
    <g id="Page-1" stroke="none" stroke-width="1" fill="none" fill-rule="evenodd">
        <g id="Mobile---Landing-Page" transform="translate(-16.000000, -18.000000)">
            <g id="Navigation-/-Prelogin">
                <g id="Logo">
                    <g transform="translate(16.000000, 18.000000)">
                        <g id="Logo-/-Normal">
                            <mask id="mask-2" fill="white">
                                <use xlink:href="#path-1"></use>
                            </mask>
                            <g id="Clip-2"></g>
                            <g id="Group-4" mask="url(#mask-2)" fill="#582CDB">
                                <g transform="translate(0.000000, 0.291454)" id="Fill-1">
                                    <path d="M11.4633,0.0529258741 C5.13214615,0.0529258741 6.92307692e-05,5.15818944 6.92307692e-05,11.4559208 C6.92307692e-05,17.7536522 4.99887692,22.7270315 11.3300308,22.7270315 L60.0584538,22.7270315 C66.3892615,22.7270315 71.6549538,17.7536522 71.6549538,11.4559208 C71.6549538,5.15818944 66.5228769,0.0529258741 60.1917231,0.0529258741 L11.4633,0.0529258741 Z"></path>
                                </g>
                            </g>
                            <path d="M59.7433154,20.2148603 C55.0325077,20.2148603 51.2002385,16.4026134 51.2002385,11.716418 C51.2002385,7.03022272 55.0325077,3.21797579 59.7433154,3.21797579 C64.4537769,3.21797579 68.2863923,7.03022272 68.2863923,11.716418 C68.2863923,16.4026134 64.4537769,20.2148603 59.7433154,20.2148603" id="Fill-4" fill="#FEFEFE" mask="url(#mask-2)"></path>
                            <path d="M59.7433154,17.5128859 C56.5251231,17.5128859 53.9165077,14.9175553 53.9165077,11.7165213 C53.9165077,8.51514299 56.5251231,5.92015674 59.7433154,5.92015674 C62.9611615,5.92015674 65.5701231,8.51514299 65.5701231,11.7165213 C65.5701231,14.9175553 62.9611615,17.5128859 59.7433154,17.5128859 Z" id="Fill-6" fill="#25CB7B" mask="url(#mask-2)"></path>
                            <path d="M11.8986923,17.4795878 C8.70403846,17.4795878 6.10546154,14.8942432 6.10546154,11.7166246 C6.10546154,8.53866178 8.70403846,5.95331719 11.8986923,5.95331719 C15.093,5.95331719 17.6919231,8.53866178 17.6919231,11.7166246 C17.6919231,14.8942432 15.093,17.4795878 11.8986923,17.4795878 M20.4331154,11.7166246 C20.4331154,7.03525016 16.6046538,3.22644668 11.8986923,3.22644668 C7.19273077,3.22644668 3.36426923,7.03525016 3.36426923,11.7166246 C3.36426923,16.3976548 7.19273077,20.2064583 11.8986923,20.2064583 C14.1331154,20.2064583 16.1688462,19.3476611 17.6919231,17.9447983 L17.6919231,18.8431952 C17.6919231,19.595934 18.3056538,20.2064583 19.0626923,20.2064583 C19.8193846,20.2064583 20.4331154,19.595934 20.4331154,18.8431952 L20.4331154,11.9890018 C20.4331154,11.9621429 20.4320769,11.9366613 20.4306923,11.9125571 C20.4320769,11.8474759 20.4331154,11.7820503 20.4331154,11.7166246" id="Fill-8" fill="#FEFEFE" mask="url(#mask-2)"></path>
                            <path d="M30.8161385,20.2148603 C26.0776385,20.2148603 22.2221769,16.3795422 22.2221769,11.6657993 C22.2221769,6.95136764 26.0776385,3.11673827 30.8161385,3.11673827 C32.9411769,3.11673827 34.9814077,3.89426998 36.5602154,5.30643009 C37.1265231,5.81296204 37.1729077,6.68002354 36.6640615,7.24337246 C36.1548692,7.80706573 35.2829077,7.85286366 34.7169462,7.34633171 C33.6445615,6.38767437 32.2592538,5.85979301 30.8161385,5.85979301 C27.5979462,5.85979301 24.9796385,8.46407659 24.9796385,11.6657993 C24.9796385,14.8671776 27.5979462,17.4718055 30.8161385,17.4718055 C32.2602923,17.4718055 33.6462923,16.9432355 34.7186769,15.9832008 C35.2846385,15.4763245 36.1566,15.5221224 36.6657923,16.085127 C37.1753308,16.6481316 37.1292923,17.5151931 36.5636769,18.0220694 C34.9838308,19.4359512 32.9429077,20.2148603 30.8161385,20.2148603" id="Fill-10" fill="#FEFEFE" mask="url(#mask-2)"></path>
                            <path d="M51.3206654,17.7254159 L43.9247423,11.5530262 L51.3206654,5.50838862 C51.9035885,5.02802691 51.9842423,4.16854102 51.5010115,3.58866352 C51.0177808,3.00913036 50.1534346,2.9288979 49.5708577,3.40960395 L41.5577423,10.0196565 L41.5577423,4.45916846 C41.5577423,3.70608527 40.9440115,3.09590538 40.1869731,3.09590538 C39.4302808,3.09590538 38.81655,3.70608527 38.81655,4.45916846 L38.81655,18.774636 C38.81655,19.5277192 39.4302808,20.1382435 40.1869731,20.1382435 C40.9440115,20.1382435 41.5577423,19.5277192 41.5577423,18.774636 L41.5577423,13.214148 L49.5708577,19.8242005 C49.8270115,20.0352842 50.1368192,20.1382435 50.4452423,20.1382435 C50.8388192,20.1382435 51.2299731,19.9702029 51.5010115,19.645141 C51.9842423,19.0656078 51.9035885,18.2061219 51.3206654,17.7254159" id="Fill-12" fill="#FEFEFE" mask="url(#mask-2)"></path>
                        </g>
                    </g>
                </g>
            </g>
        </g>
    </g>
</svg>