<?xml version="1.0" encoding="UTF-8"?>
<svg width="32px" height="32px" viewBox="0 0 32 32" version="1.1" xmlns="http://www.w3.org/2000/svg" xmlns:xlink="http://www.w3.org/1999/xlink">
    <!-- Generator: sketchtool 55.2 (78181) - https://sketchapp.com -->
    <title>E4B4CB32-C0AA-4F94-9BDA-3F258528083A</title>
    <desc>Created with sketchtool.</desc>
    <g id="Page-1" stroke="none" stroke-width="1" fill="none" fill-rule="evenodd">
        <g id="Storefront--Web---Landing" transform="translate(-426.000000, -135.000000)">
            <g id="Group-15" transform="translate(170.000000, 94.000000)">
                <g id="Group-10" transform="translate(0.000000, 31.000000)">
                    <g id="Group-9" transform="translate(240.000000, 0.000000)">
                        <g id="Group-4" transform="translate(16.000000, 10.000000)">
                            <g id="Icon">
                                <g id="Icon-/-Download">
                                    <circle id="Oval" fill="#F3F7FF" fill-rule="nonzero" cx="15.9378199" cy="15.9378199" r="15.9378199"></circle>
                                    <g id="Group-13" transform="translate(8.000000, 9.000000)">
                                        <polyline id="Path" fill="#FDD940" fill-rule="nonzero" points="6.86190928 1.65201186e-13 6.86190928 7.05440758 5.30719025 7.05440758 8.24503724 10.0534597 12.0564387 6.09718799 9.21911984 6.09718799 9.21911984 1.65201186e-13"></polyline>
                                        <polyline id="Path" stroke="#373737" stroke-linecap="round" stroke-linejoin="round" points="5.72490183 -1.0658141e-14 5.72490183 6.09718799 3.22903182 6.09718799 7.68 10.6391153 12.0564387 6.09718799 9.20178741 6.09718799 9.20178741 -1.0658141e-14"></polyline>
                                        <path d="M15.2785376,6.17680885 L15.2785376,11.3787046 C15.2737643,12.6455905 14.2663619,13.6700158 13.0253216,13.6700158 L2.24454976,13.6700158 C1.00689249,13.6651657 0.00475113604,12.6421464 -6.21724894e-15,11.3787046 L-6.21724894e-15,6.17680885" id="Path" stroke="#373737" stroke-linecap="round" stroke-linejoin="round"></path>
                                    </g>
                                </g>
                            </g>
                        </g>
                    </g>
                </g>
            </g>
        </g>
    </g>
</svg>