<?xml version="1.0" encoding="UTF-8"?>
<svg width="32px" height="32px" viewBox="0 0 32 32" version="1.1" xmlns="http://www.w3.org/2000/svg" xmlns:xlink="http://www.w3.org/1999/xlink">
    <!-- Generator: sketchtool 55.2 (78181) - https://sketchapp.com -->
    <title>49A0EAD4-81B6-4659-9EE7-F674684C93C8</title>
    <desc>Created with sketchtool.</desc>
    <g id="Page-1" stroke="none" stroke-width="1" fill="none" fill-rule="evenodd">
        <g id="Choose-Car-Type" transform="translate(-30.000000, -193.000000)">
            <g id="QuickLinks-/-Renew" transform="translate(20.000000, 183.000000)">
                <g id="Icon-">
                    <g transform="translate(10.000000, 10.000000)">
                        <g id="Icon-/-Renew">
                            <circle id="Oval" fill="#F3F7FF" fill-rule="nonzero" cx="15.9378199" cy="15.9378199" r="15.9378199"></circle>
                            <g id="Group-17" transform="translate(8.000000, 5.000000)">
                                <path d="M7.96218495,12.876097 L7.96218495,14.9537329 C5.48807813,14.9537329 3.48241827,12.9406993 3.48241827,10.4574965 C3.48143818,9.7727476 3.63793634,9.09701094 3.93972779,8.48289936 L2.18515251,6.72187343 C0.833438667,8.84995961 0.745703101,11.5485559 1.95631382,13.7605609 C3.16692453,15.9725659 5.48314139,17.3458085 7.99764977,17.3423585 L8.6864139,17.3423585 L8.6864139,19.0153331 L11.5478649,16.2538946 L7.96218495,12.876097 Z" id="Path" fill="#49EB9E" fill-rule="nonzero"></path>
                                <path d="M7.96965123,2.4654363 C10.9275901,2.46449192 13.6421824,4.10966094 15.0186371,6.73744917 C16.3950919,9.3652374 16.2064445,12.5423471 14.5287763,14.9874547 L11.9846421,12.4339671 C12.2864336,11.8198555 12.4429317,11.1441189 12.4419516,10.4593699 C12.4419516,7.97616715 10.4362918,5.96313354 7.96218495,5.96313354 L7.96218495,8.04451631 L3.93039494,3.99228325 L7.96965123,-2.51354493e-13 L7.96965123,2.4654363 Z" id="Path" stroke="#373737" stroke-linecap="round" stroke-linejoin="round"></path>
                                <path d="M7.96218495,18.4570505 C5.00488389,18.4575154 2.29103181,16.8126095 0.914712601,14.1854731 C-0.461606611,11.5583368 -0.27355304,8.38196496 1.40305991,5.93690549 L3.94719407,8.49039309 C3.64540261,9.10450467 3.48890446,9.78024133 3.48988455,10.4649902 C3.48988455,12.948193 5.49554441,14.9612267 7.96965123,14.9612267 L7.96965123,12.876097 L12.0089075,16.9283301 L7.96965123,20.914993 L7.96218495,18.4570505 Z" id="Path" stroke="#373737" stroke-linecap="round" stroke-linejoin="round"></path>
                            </g>
                        </g>
                    </g>
                </g>
            </g>
        </g>
    </g>
</svg>