<svg width="32" height="32" viewBox="0 0 32 32" fill="none" xmlns="http://www.w3.org/2000/svg">
<path d="M25.4667 21.1331C26.3872 21.1331 27.1334 20.3869 27.1334 19.4665C27.1334 18.546 26.3872 17.7998 25.4667 17.7998C24.5462 17.7998 23.8 18.546 23.8 19.4665C23.8 20.3869 24.5462 21.1331 25.4667 21.1331Z" fill="#6CCAFF"/>
<path d="M12.9333 21.1331C13.8537 21.1331 14.5999 20.3869 14.5999 19.4665C14.5999 18.546 13.8537 17.7998 12.9333 17.7998C12.0128 17.7998 11.2666 18.546 11.2666 19.4665C11.2666 20.3869 12.0128 21.1331 12.9333 21.1331Z" fill="#6CCAFF"/>
<path d="M29.4001 17.6668H29.0667V16.8001C29.0667 16.2001 28.6667 15.6001 28.0667 15.4668L23.0001 14.2668L20.7334 12.3335C20.0667 11.8001 19.2667 11.4668 18.4667 11.4668H14.4001C13.2667 11.4668 12.2001 12.0001 11.5334 13.0001L9.93341 15.2668L8.66675 15.4668C8.06675 15.5335 7.66675 16.0668 7.66675 16.6001V18.2668C7.66675 18.9335 8.20008 19.4668 8.86675 19.4668H10.2667H10.8667C10.8667 18.2668 11.8667 17.2668 13.0667 17.2668C14.2667 17.2668 15.2667 18.2668 15.2667 19.4668H23.4667C23.4667 18.2668 24.4667 17.2668 25.6667 17.2668C26.8667 17.2668 27.8667 18.2668 27.8667 19.4668H29.2668C29.5334 19.4668 29.7334 19.3335 29.8001 19.0668L30.0667 18.2001C29.9334 17.9335 29.6667 17.6668 29.4001 17.6668ZM16.2001 15.2668H12.0001C11.7334 15.2668 11.6001 15.0001 11.7334 14.7335L12.6667 13.4668C13.1334 12.8001 13.9334 12.4001 14.7334 12.4001H16.2001V15.2668ZM21.6001 15.2668H16.8001V12.4001H18.4667C19.1334 12.4001 19.8001 12.6668 20.2667 13.1335L21.8001 14.7335C22.0001 14.9335 21.8667 15.2668 21.6001 15.2668Z" fill="#6CCAFF"/>
<path d="M19.4666 19.4662C18.2666 22.1329 15.7333 23.9995 12.4666 23.9995C8.2666 23.9995 4.79993 20.5995 4.79993 16.3329C4.79993 12.1329 8.2666 8.66619 12.4666 8.66619V9.73286C12.4666 10.0662 12.7999 10.1995 13.0666 10.0662L17.1999 7.26619C17.3999 7.13286 17.3999 6.79952 17.1999 6.59952L13.0666 3.79952C12.7999 3.59952 12.4666 3.79952 12.4666 4.13286V5.13286C6.2666 5.13286 1.2666 10.1995 1.2666 16.3329C1.2666 22.5329 6.33327 27.5329 12.4666 27.5329C17.5333 27.5329 21.8666 24.0662 23.2666 19.4662H19.4666Z" fill="#5A68E7"/>
<path d="M23.8 9.8666C24.2418 9.8666 24.6 9.50843 24.6 9.0666C24.6 8.62477 24.2418 8.2666 23.8 8.2666C23.3582 8.2666 23 8.62477 23 9.0666C23 9.50843 23.3582 9.8666 23.8 9.8666Z" fill="#CBF9BB"/>
<path d="M25.5334 25.5334L24.8001 25.9334C24.6668 26 24.4668 26 24.3334 25.8L23.9334 25.0667C23.8668 24.9334 23.8668 24.7334 24.0668 24.6L24.8001 24.2C24.9334 24.1334 25.1334 24.1334 25.2668 24.3334L25.6668 25.0667C25.7334 25.2667 25.6668 25.4667 25.5334 25.5334Z" fill="#FFCCC8"/>
</svg>
