<svg width="95" height="57" viewBox="0 0 95 57" fill="none" xmlns="http://www.w3.org/2000/svg">
<path d="M86.2504 46.3868C86.2504 46.3868 93.531 45.7525 94.5848 38.8965C94.6708 37.9916 94.2688 37.1095 93.531 36.5844C93.531 36.5844 92.7327 31.2617 91.2798 30.8603C89.8268 30.4589 86.3302 31.0048 82.9294 29.1342C79.6642 27.3439 75.6487 24.3173 63.8575 25.4172C52.0663 26.517 48.0508 27.7213 40.2512 35.051C39.9176 35.3447 39.5627 35.613 39.1894 35.8538L35.8445 36.8413" stroke="black" stroke-width="0.8" stroke-linecap="round" stroke-linejoin="round"/>
<path d="M41.1055 50.5939L70.0685 47.8965" stroke="black" stroke-width="0.8" stroke-linecap="round" stroke-linejoin="round"/>
<path d="M25.131 31.5908C26.6558 31.7273 30.376 32.5381 35.8285 36.8412C35.8285 36.8412 24.8916 39.0249 22.8798 41.0239C20.0617 43.8177 22.1932 46.1941 20.868 46.8042C20.868 46.8042 20.5647 46.9327 20.6285 47.4465C20.6924 47.9603 19.8941 52.4801 21.0995 52.448L22.9197 52.2794" stroke="black" stroke-width="0.8" stroke-linecap="round" stroke-linejoin="round"/>
<path d="M58.6604 34.9626L46.1508 36.0705C45.7608 36.0987 45.3941 35.8816 45.2292 35.5251C45.0644 35.1685 45.1356 34.7467 45.4083 34.4649C47.1247 32.7549 49.9667 30.3465 53.0562 29.4152C55.0903 28.8621 57.1643 28.4702 59.2592 28.2431C59.6159 28.1984 59.9724 28.3277 60.2186 28.5912C60.4648 28.8546 60.5711 29.2205 60.5046 29.5757L59.6264 34.0715C59.5296 34.5472 59.14 34.9066 58.6604 34.9626Z" fill="#CEE8FD"/>
<path d="M63.0194 28.7652C63.0686 28.2179 63.5042 27.7866 64.0492 27.7456C68.5597 27.4085 72.8786 27.3924 74.4274 27.8901C77.3812 28.8535 78.3232 29.56 77.932 31.278C77.5408 32.9961 75.066 33.4697 72.8227 33.6865L63.8177 34.5134C63.4855 34.5433 63.1573 34.4235 62.9215 34.1863C62.6857 33.9492 62.5666 33.6191 62.5963 33.2851L63.0194 28.7652Z" fill="#CEE8FD"/>
<path fill-rule="evenodd" clip-rule="evenodd" d="M31.3581 56.2853C34.6737 56.2853 37.3615 53.5824 37.3615 50.2481C37.3615 46.9139 34.6737 44.2109 31.3581 44.2109C28.0425 44.2109 25.3547 46.9139 25.3547 50.2481C25.3547 53.5824 28.0425 56.2853 31.3581 56.2853Z" stroke="black" stroke-width="0.8" stroke-linecap="round" stroke-linejoin="round"/>
<path fill-rule="evenodd" clip-rule="evenodd" d="M78.0038 53.1066C81.3194 53.1066 84.0072 50.4037 84.0072 47.0694C84.0072 43.7352 81.3194 41.0322 78.0038 41.0322C74.6883 41.0322 72.0005 43.7352 72.0005 47.0694C72.0005 50.4037 74.6883 53.1066 78.0038 53.1066Z" stroke="black" stroke-width="0.8" stroke-linecap="round" stroke-linejoin="round"/>
<path d="M25.8575 0.401367L15.3357 37.5317V55.579" stroke="black" stroke-width="0.8" stroke-linecap="round" stroke-linejoin="round"/>
<path d="M16.9482 4.32715L31.781 8.45363" stroke="black" stroke-width="0.8" stroke-linecap="round" stroke-linejoin="round"/>
<path d="M6.75373 45.4717H1.85205" stroke="#FFA743" stroke-width="0.8" stroke-linecap="round" stroke-linejoin="round"/>
<path d="M7.55211 38.8159L0.39917 35.7812" stroke="#FFA743" stroke-width="0.8" stroke-linecap="round" stroke-linejoin="round"/>
</svg>
