<svg width="32" height="32" viewBox="0 0 32 32" fill="none" xmlns="http://www.w3.org/2000/svg">
<path d="M19.1999 3H10.4999C9.1999 3 8.0999 3.7 7.5999 4.9L3.4999 14.7C3.1999 15.5 3.1999 16.3 3.4999 17.1L7.5999 26.9C8.0999 28.1 9.1999 28.8 10.4999 28.8H19.1999L24.5999 15.9L19.1999 3ZM20.1999 21.1C18.2999 21.1 16.7999 18.8 16.7999 15.9C16.7999 13 18.2999 10.7 20.1999 10.7C22.0999 10.7 23.5999 13 23.5999 15.9C23.5999 18.8 22.0999 21.1 20.1999 21.1Z" fill="#6CCAFF"/>
<path d="M20.2001 21.1004C18.3001 21.1004 16.8 18.8004 16.8 15.9004H3.30005C3.30005 16.3004 3.40005 16.7004 3.50005 17.1004L7.60005 26.9004C8.10005 28.1004 9.20005 28.8004 10.5 28.8004H19.2L24.6 15.9004H23.6C23.6 18.8004 22.1 21.1004 20.2001 21.1004Z" fill="#47AFFA"/>
<path d="M29.9 14.7L25.8 4.9C25.3 3.7 24.2 3 23 3H16.3C15.1 3 13.9 3.7 13.5 4.9L9.40005 14.7C9.10005 15.5 9.10005 16.3 9.40005 17.1L13.5 26.9C14 28 15.1 28.8 16.3 28.8H23C24.2 28.8 25.4 28.1 25.8 26.9L29.9 17.1C30.2 16.3 30.2 15.4 29.9 14.7ZM20.2001 21.1C18.3001 21.1 16.8 18.8 16.8 15.9C16.8 13 18.3001 10.7 20.2001 10.7C22.1 10.7 23.6 13 23.6 15.9C23.6 18.8 22.1 21.1 20.2001 21.1Z" fill="#AEE2FF"/>
<path d="M2.3999 3.10039C2.1999 3.50039 1.8999 4.10039 1.0999 4.40039C0.999902 4.50039 0.999902 4.70039 1.0999 4.70039C1.7999 5.00039 2.1999 5.60039 2.3999 6.00039C2.4999 6.10039 2.6999 6.10039 2.6999 6.00039C2.8999 5.60039 3.1999 5.00039 3.9999 4.70039C4.0999 4.60039 4.0999 4.40039 3.9999 4.40039C3.1999 4.10039 2.8999 3.50039 2.6999 3.10039C2.5999 3.00039 2.3999 3.00039 2.3999 3.10039Z" fill="#FFE662"/>
<path d="M29.8999 6.39967L30.0999 6.89967C30.0999 6.99967 30.1999 6.99967 30.1999 6.99967H30.6999C30.7999 6.99967 30.8999 7.19967 30.7999 7.19967L30.3999 7.49967C30.3999 7.49967 30.2999 7.59967 30.3999 7.59967L30.5999 8.09967C30.5999 8.19967 30.4999 8.29967 30.3999 8.19967L29.8999 7.99967H29.7999L29.3999 8.29967C29.2999 8.39967 29.1999 8.29967 29.1999 8.19967L29.3999 7.69967C29.3999 7.59967 29.3999 7.59967 29.3999 7.59967L28.9999 7.29967C28.8999 7.19967 28.9999 7.09967 29.0999 7.09967H29.5999C29.6999 7.09967 29.6999 7.09967 29.6999 6.99967L29.8999 6.49967C29.6999 6.29967 29.8999 6.29967 29.8999 6.39967Z" fill="#FFC400"/>
<path d="M5.6999 28.6996C7.79858 28.6996 9.4999 26.9983 9.4999 24.8996C9.4999 22.8009 7.79858 21.0996 5.6999 21.0996C3.60122 21.0996 1.8999 22.8009 1.8999 24.8996C1.8999 26.9983 3.60122 28.6996 5.6999 28.6996Z" fill="#FFE662"/>
<path d="M6.4001 28.6996C8.49878 28.6996 10.2001 26.9983 10.2001 24.8996C10.2001 22.8009 8.49878 21.0996 6.4001 21.0996C4.30142 21.0996 2.6001 22.8009 2.6001 24.8996C2.6001 26.9983 4.30142 28.6996 6.4001 28.6996Z" fill="#FFC400"/>
<path d="M7.3999 23.8004C7.3999 23.8004 7.3999 23.7004 7.3999 23.8004L7.4999 23.5004C7.4999 23.5004 7.4999 23.4004 7.3999 23.4004H5.4999C5.4999 23.4004 5.3999 23.4004 5.3999 23.5004V23.8004C5.3999 23.8004 5.3999 23.8004 5.3999 23.9004C5.3999 23.9004 5.3999 23.9004 5.4999 23.9004H5.6999C5.9999 23.9004 6.3999 24.1004 6.4999 24.5004H5.4999C5.4999 24.5004 5.3999 24.5004 5.3999 24.6004V24.9004C5.3999 24.9004 5.3999 25.0004 5.4999 25.0004H6.4999C6.2999 25.3004 5.8999 25.5004 5.6999 25.5004C5.5999 25.5004 5.5999 25.6004 5.5999 25.7004L6.8999 27.0004H6.9999L7.1999 26.8004V26.7004L6.1999 25.7004C6.1999 25.7004 6.7999 25.5004 6.9999 24.9004H7.2999C7.2999 24.9004 7.3999 24.9004 7.3999 24.8004V24.5004C7.3999 24.5004 7.3999 24.4004 7.2999 24.4004H7.0999C7.0999 24.1004 6.9999 23.9004 6.7999 23.8004H7.3999Z" fill="white"/>
</svg>
